<svg id="Layer_1" data-name="Layer 1" xmlns="http://www.w3.org/2000/svg" viewBox="0 0 380.69 391.54"><defs><style>.cls-1{fill:#003231;}</style></defs><title>logo</title><path class="cls-1" d="M-316.86,125.29l-4.8,6.28c9.14,6.06,19.43,10.28,30.85,11.19A289.38,289.38,0,0,1-244.34,150a11.73,11.73,0,0,0,4.42.16c6.64-1,13.25-2.2,19.9-3.2A13,13,0,0,0-209.3,136.8h2.23c-.16-1.59-.3-3-.51-5.16l5.1,6.61a9.87,9.87,0,0,1,2-2.35c.7-.42,1.75-.26,3-.39.23-1,.58-2.56,1-4.5l2.26,2.63c3.74-4.17,3.74-4.17,8.83-3.6,1,5.3,1.24,5.3,8,.13,1.86,1.19,3.65,3.25,5.45,3.25,2.26,0,4.79-1.29,6.74-2.68q33.28-23.9,66.41-48c1-.73,2-1.49,3.35-2.53.19,1.28.34,2.26.6,4.06l2.29-5.85c3.09,1.86,5,.21,6.57-2.36A48.19,48.19,0,0,1-72.64,61.62l1.15.62C-76.6,72.84-81,83.84-87,93.91c-6.1,10.25-13.76,19.56-20.64,29.35a14.55,14.55,0,0,0-2.32,5.23c-1.05,5.06-2.89,6.76-8.1,6.92a21.43,21.43,0,0,0-4.08.37c-2.43.55-4.13,1.8-3.21,5.17-5.16-2.78-9.24.21-14,1.48l7,12-1.19.81-5.53-6.54c-3,2.52-5.55,4.46-7.87,6.63-2.09,2-3.88,4.25-5.91,6.27-3.74,3.72-7.81,7.23-6.13,13.27-3.55.5-7.43,0-9.56,1.66-1.92,1.53-1.93,5.48-3,8.93-1.22-1.07-3.08-2.12-4.13-3.71-2.12-3.19-4.66-4.12-8.27-3C-188,180-192.22,181-196.27,182c.36,4.66-.67,5.6-4.52,4.37a34.36,34.36,0,0,1-5.67-2.81c-5.66-3-11.51-4.71-18-2.86a4.77,4.77,0,0,1-2.57,0c-16.43-4.78-33.07-3.51-49.73-1.77-2.6.28-5.19.64-8.06,1l-.38-5.2-.46,1c-2.23-.63-4.64-.89-6.65-1.94-9.49-5-18.84-10.21-28.31-15.23a8.93,8.93,0,0,0-3.95-.68c-7.61-.13-14.46-2.3-20.32-7.31-3.49-3-7.63-3.9-12.13-4.11-4.69-.22-9.63,0-14-1.48-10.18-3.35-14.89-11.93-18-21.5a75.76,75.76,0,0,1-1.76-7.65c-.81-3.72-2.33-6.82-6.2-8.28a3.81,3.81,0,0,1-1.86-2c-8.58-20.61-17-41.28-25.7-61.83-2.62-6.2-3-12.5-2.71-19,5.17-.67,5.42-1.16,4.63-6.17-2.3-14.5-8-27.76-14.63-40.67A8.74,8.74,0,0,1-438.47-27c2.21-13.54,4.36-27.11,7.1-40.55,3-14.53,11.31-25.9,22.32-35.5,2.91-2.54,5.72-5.21,8.51-7.89,5.29-5.06,9.73-10.63,11.54-18a12,12,0,0,1,3.3-5.33c10.55-10.27,21.26-20.38,31.86-30.61a12.28,12.28,0,0,1,11-3.28c1.35.21,2.74.22,4.09.44,4.48.73,7.14-.52,9.49-5.09,4.23-8.24,11.36-12.53,21.2-11.67,2.27.2,5-1.14,7-2.56,3-2.15,5.47-5.09,8.34-7.49.91-.76,2.35-.89,3.56-1.3a20.41,20.41,0,0,1,.75,3.48,38.16,38.16,0,0,1-.48,4.81c10.45-7.61,21.78-11.38,32.81-15.89,5.14-2.1,8.84-1.38,12.84,2.12,2.07,1.82,5,2.66,7.53,4l.47-.81a6.27,6.27,0,0,1,.3,1.06c.75,11.3-1.46,13.83-12.66,13.23-21.19-1.12-40.73,4.25-59,14.58-10.75,6.07-21.66,12-31.85,18.86-7.27,4.93-13.59,11.31-20.12,17.28-11.65,10.63-22.45,22-30.51,35.75s-12.22,28.85-13.69,44.74q-1.68,18.27-4,36.5a26.13,26.13,0,0,1-3,8.38,18,18,0,0,0-1.72,11.6c1.24,7.76,2.29,15.55,3.3,22.57-1.83,1.07-4.46,1.85-4.52,2.8a10.53,10.53,0,0,0,1.92,6c.42.65,2.67.11,4.67.11,1,2.36,2.46,5.26,3.46,8.31C-398.14,57.45-390.24,69-379.73,79c16.74,15.9,33.38,31.91,50.13,47.81a4.33,4.33,0,0,0,3.25,1C-323.59,127.35-320.91,126.42-316.86,125.29Zm-82.66-66.35c-3.66-5.29-4.3-11.13-8.73-14.82C-404.7,48.39-407.68,56.16-399.52,58.94Zm-12.55-14.63c-3.36,1.91-3.12,2.66,2.3,7.57Z" transform="translate(438.52 204.64)"/><path class="cls-1" d="M-200.37-188.85c1.16-3.1,4.29-3.68,8.08-3.91,33.19-2,60.16,10.83,82.54,34.63a25.21,25.21,0,0,1,2.9,3.89c12,19.14,24,38.28,35.87,57.5a17.44,17.44,0,0,1,2.59,7.24c1.51,15.64,2.75,31.32,4.09,47,0,.21.23.4.78,1.34l5.69-6.39c-2.32,12.37-4.68,24.89-7,37.42h-.61c.45-8.35.9-16.71,1.34-24.86-1.17.26-3.15,1.33-4,.74s-.89-2.85-1.48-4.29-1.08-2.83-2.1-3.66c-6.89-5.56-11.34-12.86-15-20.72a5.74,5.74,0,0,1-.08-3.51c2.87-11.07-.56-18.24-8-22.83-2.64-1.63-4.59-4.86-6.08-7.77a52.09,52.09,0,0,1-4.05-11.23c-.93-3.71-1.16-7.6-1.76-11.9-1.43.7-2.93,1.41-4.42,2.16-3.63,1.83-6.77,1.65-10.37-.86-20-13.88-40.12-27.47-60.16-41.23a28.83,28.83,0,0,0-14.58-4.9,32.45,32.45,0,0,1-19.63-8.28c-3-2.69-5.21-5.85-3.58-10.22s5.24-5.32,9.35-5.34C-207.14-188.86-204.19-188.85-200.37-188.85Z" transform="translate(438.52 204.64)"/><path class="cls-1" d="M-269.67,12.46q-.27-40.22-.53-80.45c0-.91.13-1.82.24-3.11h14.25l.07,107.88c-6.56,0-13,.21-19.34-.18-1-.07-2.45-2.54-2.9-4.19-6.54-24.32-12.94-48.68-19.39-73-.66-2.47-1.43-4.89-1.85-6.31l.05,83.29h-13.47l-.07-107.75c6.41,0,12.94-.21,19.45.2,1,.06,2.24,2.8,2.7,4.55,6.48,24.13,12.84,48.32,19.25,72.48.61,2.29,1.34,4.54,2,6.8Z" transform="translate(438.52 204.64)"/><path class="cls-1" d="M-129.57,30.59a30.26,30.26,0,0,1,22.07,11l-10,14.32c-2.2-2.47-4.15-4.69-6.12-6.87-5.47-6.06-12-10.28-19.45-10-22.58.75-32.66-16-35.68-37.44-2.44-17.37-2.23-34.72,3.26-51.45,4.83-14.73,14.9-23.4,26.91-23.52,16.42-.16,26.4,6.52,31.65,22.81,6.1,18.93,6.44,38.47,1.69,57.91a44,44,0,0,1-5.69,12.36C-123.22,23.43-126.29,26.54-129.57,30.59Zm.72-47.79c-1.29-9.8-2.08-19.59-4-29.08-1.64-8.14-6.68-12.35-12.67-12.56C-152-59.08-157-55.44-159-46.95A123.7,123.7,0,0,0-159,12.24c2,8,7.17,12,13.16,11.89,6.19-.12,11.37-4.44,13.05-12.77C-130.87,2.06-130.12-7.55-128.85-17.2Z" transform="translate(438.52 204.64)"/><path class="cls-1" d="M-327.89-60.87l-7.07,8.7c-5.24-2.32-9.83-5.4-14.71-6.29-8.1-1.47-14.2,2.94-17.25,11.91-1.76,5.18-3.22,10.92-3.24,16.41,0,13-.07,26.13,1.59,38.91,1.78,13.67,11,18.74,21.6,13.84,2.72-1.25,4.16-2.91,4-6.64-.23-7,.07-14-.2-21-.06-1.49-1.34-3.7-2.49-4.19-2.54-1.08-6.23-.27-7.81-2.14s-1.13-6-1.54-9.22c-.11-.91-.09-1.85-.14-3.21l27.59,0c.12,1.26.31,2.35.32,3.43,0,15.14.13,30.28-.08,45.42a8.56,8.56,0,0,1-2.64,5.85c-9.45,7-19.87,9.67-31,7.71C-371,36.82-379,30.74-382.69,19.48c-7.9-24-8.8-48.53.8-72.12C-370.94-79.54-340.22-78.56-327.89-60.87Z" transform="translate(438.52 204.64)"/><path class="cls-1" d="M-245.91,24.64l7.58-9.82c5.41,3.09,10.2,6.71,15.44,8.61,7.4,2.68,13.49-1,16-8.19,3-8.44.91-18.21-5.38-22.5-6-4.08-12.5-7-18.43-11.11-9.77-6.79-13.69-17.39-12-30.39,1.75-13.26,9-21.36,19.9-23.89,12.19-2.83,23.34.17,32.32,12.16l-6.51,8.81c-6.24-2.63-11.44-5.57-16.93-6.91-4.8-1.18-8.78,1.8-10.76,7.4-2,5.78-1.08,12.39,2.83,16.12a49.46,49.46,0,0,0,8.67,6c3.57,2.17,7.38,3.81,10.86,6.13,12.1,8.05,16.78,21.77,13.26,38.23-3,13.79-13.32,22.94-26.37,23.79C-227.4,39.88-237.45,35.33-245.91,24.64Z" transform="translate(438.52 204.64)"/></svg>